<?xml version="1.0" encoding="utf-8"?>
<!-- Generator: Adobe Illustrator 24.1.0, SVG Export Plug-In . SVG Version: 6.00 Build 0)  -->
<svg version="1.1" id="Layer_1" xmlns="http://www.w3.org/2000/svg" xmlns:xlink="http://www.w3.org/1999/xlink" x="0px" y="0px"
	 viewBox="0 0 2400 1800" style="enable-background:new 0 0 2400 1800;" xml:space="preserve">
<style type="text/css">
	.st0{fill-rule:evenodd;clip-rule:evenodd;fill:#FFFFFF;}
	.st1{fill:#F22525;}
</style>
<rect width="800" height="600"/>
<path class="st0" d="M0,0v600h100V0H0z M200,0v600h100V0H200z M400,0v600h100V0H400z M600,0v600h100V0H600z M0,0h800v100H0V0z
	 M0,200h800v100H0V200z M0,400h800v100H0V400z"/>
<rect x="800" width="800" height="600"/>
<path class="st0" d="M800,0v600h100V0H800z M1000,0v600h100V0H1000z M1200,0v600h100V0H1200z M1400,0v600h100V0H1400z M800,0h800
	v100H800V0z M800,200h800v100H800V200z M800,400h800v100H800V400z"/>
<rect x="1600" width="800" height="600"/>
<path class="st0" d="M1600,0v600h100V0H1600z M1800,0v600h100V0H1800z M2000,0v600h100V0H2000z M2200,0v600h100V0H2200z M1600,0h800
	v100h-800V0z M1600,200h800v100h-800V200z M1600,400h800v100h-800V400z"/>
<rect y="600" width="800" height="600"/>
<path class="st0" d="M0,600v600h100V600H0z M200,600v600h100V600H200z M400,600v600h100V600H400z M600,600v600h100V600H600z M0,600
	h800v100H0V600z M0,800h800v100H0V800z M0,1000h800v100H0V1000z"/>
<rect x="800" y="600" width="800" height="600"/>
<path class="st0" d="M800,600v600h100V600H800z M1000,600v600h100V600H1000z M1200,600v600h100V600H1200z M1400,600v600h100V600
	H1400z M800,600h800v100H800V600z M800,800h800v100H800V800z M800,1000h800v100H800V1000z"/>
<rect x="1600" y="600" width="800" height="600"/>
<path class="st0" d="M1600,600v600h100V600H1600z M1800,600v600h100V600H1800z M2000,600v600h100V600H2000z M2200,600v600h100V600
	H2200z M1600,600h800v100h-800V600z M1600,800h800v100h-800V800z M1600,1000h800v100h-800V1000z"/>
<rect y="1200" width="800" height="600"/>
<path class="st0" d="M0,1200v600h100v-600H0z M200,1200v600h100v-600H200z M400,1200v600h100v-600H400z M600,1200v600h100v-600H600z
	 M0,1200h800v100H0V1200z M0,1400h800v100H0V1400z M0,1600h800v100H0V1600z"/>
<rect x="800" y="1200" width="800" height="600"/>
<path class="st0" d="M800,1200v600h100v-600H800z M1000,1200v600h100v-600H1000z M1200,1200v600h100v-600H1200z M1400,1200v600h100
	v-600H1400z M800,1200h800v100H800V1200z M800,1400h800v100H800V1400z M800,1600h800v100H800V1600z"/>
<rect x="1600" y="1200" width="800" height="600"/>
<path class="st0" d="M1600,1200v600h100v-600H1600z M1800,1200v600h100v-600H1800z M2000,1200v600h100v-600H2000z M2200,1200v600
	h100v-600H2200z M1600,1200h800v100h-800V1200z M1600,1400h800v100h-800V1400z M1600,1600h800v100h-800V1600z"/>
<rect y="764.8" class="st1" width="2400" height="170.4"/>
</svg>
