<svg version="1.1" viewBox="0.0 0.0 978.0 489.6010498687664" fill="none" stroke="none" stroke-linecap="square" stroke-miterlimit="10" xmlns:xlink="http://www.w3.org/1999/xlink" xmlns="http://www.w3.org/2000/svg"><clipPath id="p.0"><path d="m0 0l978.0 0l0 489.60104l-978.0 0l0 -489.60104z" clip-rule="nonzero"/></clipPath><g clip-path="url(#p.0)"><path fill="#000000" fill-opacity="0.0" d="m0 0l978.0 0l0 489.60104l-978.0 0z" fill-rule="evenodd"/><path fill="#ffff00" d="m420.33072 257.01837l0 0c0 -14.298523 11.5841675 -25.889755 25.873993 -25.889755l0 0c6.862213 0 13.44339 2.7276611 18.295715 7.5829315c4.852295 4.8552704 7.578308 11.44043 7.578308 18.306824l0 0c0 14.298523 -11.584198 25.88977 -25.874023 25.88977l0 0c-14.289825 0 -25.873993 -11.591248 -25.873993 -25.88977z" fill-rule="evenodd"/><path stroke="#000000" stroke-width="3.0" stroke-linejoin="round" stroke-linecap="butt" d="m420.33072 257.01837l0 0c0 -14.298523 11.5841675 -25.889755 25.873993 -25.889755l0 0c6.862213 0 13.44339 2.7276611 18.295715 7.5829315c4.852295 4.8552704 7.578308 11.44043 7.578308 18.306824l0 0c0 14.298523 -11.584198 25.88977 -25.874023 25.88977l0 0c-14.289825 0 -25.873993 -11.591248 -25.873993 -25.88977z" fill-rule="evenodd"/><path fill="#000000" fill-opacity="0.0" d="m0 106.87664l264.40945 0l0 69.76379l-264.40945 0z" fill-rule="evenodd"/><path fill="#000000" d="m11.953125 154.27664l0 -28.640625l19.625 0l0 4.84375l-13.84375 0l0 6.78125l11.953125 0l0 4.84375l-11.953125 0l0 12.171875l-5.78125 0zm29.605469 0l-5.484375 0l0 -20.75l5.09375 0l0 2.953125q1.3125 -2.09375 2.359375 -2.75q1.046875 -0.671875 2.375 -0.671875q1.875 0 3.609375 1.046875l-1.703125 4.78125q-1.390625 -0.90625 -2.578125 -0.90625q-1.15625 0 -1.953125 0.640625q-0.796875 0.640625 -1.265625 2.296875q-0.453125 1.65625 -0.453125 6.953125l0 6.40625zm9.050781 -10.671875q0 -2.734375 1.34375 -5.28125q1.34375 -2.5625 3.8125 -3.90625q2.46875 -1.359375 5.515625 -1.359375q4.71875 0 7.71875 3.0625q3.015625 3.0625 3.015625 7.71875q0 4.71875 -3.046875 7.8125q-3.03125 3.09375 -7.640625 3.09375q-2.859375 0 -5.453125 -1.28125q-2.578125 -1.296875 -3.921875 -3.78125q-1.34375 -2.5 -1.34375 -6.078125zm5.625 0.296875q0 3.09375 1.453125 4.734375q1.46875 1.640625 3.625 1.640625q2.140625 0 3.59375 -1.640625q1.453125 -1.640625 1.453125 -4.765625q0 -3.046875 -1.453125 -4.6875q-1.453125 -1.640625 -3.59375 -1.640625q-2.15625 0 -3.625 1.640625q-1.453125 1.640625 -1.453125 4.71875zm19.667969 -10.375l5.046875 0l0 2.84375q2.71875 -3.3125 6.46875 -3.3125q2.0 0 3.453125 0.828125q1.46875 0.8125 2.40625 2.484375q1.375 -1.671875 2.953125 -2.484375q1.578125 -0.828125 3.375 -0.828125q2.28125 0 3.859375 0.9375q1.59375 0.921875 2.375 2.71875q0.5625 1.328125 0.5625 4.296875l0 13.265625l-5.484375 0l0 -11.859375q0 -3.078125 -0.5625 -3.984375q-0.765625 -1.171875 -2.34375 -1.171875q-1.15625 0 -2.171875 0.703125q-1.015625 0.703125 -1.46875 2.0625q-0.453125 1.359375 -0.453125 4.28125l0 9.96875l-5.484375 0l0 -11.375q0 -3.015625 -0.296875 -3.890625q-0.28125 -0.890625 -0.90625 -1.3125q-0.609375 -0.4375 -1.671875 -0.4375q-1.265625 0 -2.28125 0.6875q-1.015625 0.6875 -1.453125 1.984375q-0.4375 1.28125 -0.4375 4.265625l0 10.078125l-5.484375 0l0 -20.75zm36.003906 20.75l0 -28.640625l9.28125 0q5.28125 0 6.875 0.4375q2.46875 0.640625 4.125 2.796875q1.65625 2.15625 1.65625 5.578125q0 2.640625 -0.953125 4.4375q-0.953125 1.796875 -2.4375 2.828125q-1.46875 1.015625 -3.0 1.34375q-2.0625 0.421875 -5.984375 0.421875l-3.78125 0l0 10.796875l-5.78125 0zm5.78125 -23.796875l0 8.125l3.171875 0q3.421875 0 4.5625 -0.4375q1.15625 -0.453125 1.8125 -1.40625q0.65625 -0.96875 0.65625 -2.234375q0 -1.5625 -0.921875 -2.578125q-0.921875 -1.015625 -2.328125 -1.265625q-1.03125 -0.203125 -4.15625 -0.203125l-2.796875 0zm19.445312 14.484375l5.625 -0.546875q0.5 2.828125 2.046875 4.15625q1.5625 1.328125 4.203125 1.328125q2.78125 0 4.203125 -1.171875q1.421875 -1.1875 1.421875 -2.78125q0 -1.015625 -0.609375 -1.71875q-0.59375 -0.71875 -2.078125 -1.25q-1.015625 -0.34375 -4.625 -1.25q-4.640625 -1.140625 -6.515625 -2.828125q-2.640625 -2.359375 -2.640625 -5.765625q0 -2.1875 1.234375 -4.078125q1.25 -1.90625 3.578125 -2.90625q2.328125 -1.0 5.640625 -1.0q5.390625 0 8.109375 2.375q2.71875 2.359375 2.859375 6.296875l-5.78125 0.25q-0.375 -2.203125 -1.59375 -3.171875q-1.21875 -0.96875 -3.65625 -0.96875q-2.515625 0 -3.953125 1.046875q-0.90625 0.65625 -0.90625 1.765625q0 1.015625 0.859375 1.75q1.09375 0.90625 5.3125 1.90625q4.21875 1.0 6.234375 2.0625q2.015625 1.0625 3.15625 2.90625q1.15625 1.84375 1.15625 4.5625q0 2.46875 -1.375 4.625q-1.359375 2.140625 -3.859375 3.1875q-2.5 1.046875 -6.234375 1.046875q-5.4375 0 -8.34375 -2.515625q-2.90625 -2.515625 -3.46875 -7.3125zm28.101562 9.3125l0 -5.484375l5.484375 0l0 5.484375l-5.484375 0zm10.988281 -23.5625l0 -5.078125l5.5 0l0 5.078125l-5.5 0zm5.5 2.8125l0 20.109375q0 3.96875 -0.53125 5.59375q-0.515625 1.625 -1.984375 2.546875q-1.46875 0.921875 -3.765625 0.921875q-0.8125 0 -1.765625 -0.15625q-0.953125 -0.140625 -2.046875 -0.4375l0.96875 -4.6875q0.390625 0.078125 0.734375 0.125q0.34375 0.0625 0.625 0.0625q0.84375 0 1.375 -0.375q0.546875 -0.359375 0.71875 -0.875q0.171875 -0.5 0.171875 -3.03125l0 -19.796875l5.5 0zm3.8007812 14.828125l5.515625 -0.84375q0.34375 1.609375 1.421875 2.4375q1.078125 0.828125 3.0 0.828125q2.140625 0 3.203125 -0.78125q0.734375 -0.546875 0.734375 -1.46875q0 -0.625 -0.390625 -1.03125q-0.421875 -0.390625 -1.84375 -0.71875q-6.640625 -1.46875 -8.421875 -2.671875q-2.453125 -1.6875 -2.453125 -4.671875q0 -2.703125 2.125 -4.53125q2.125 -1.84375 6.609375 -1.84375q4.25 0 6.3125 1.390625q2.078125 1.390625 2.859375 4.109375l-5.171875 0.953125q-0.328125 -1.21875 -1.265625 -1.859375q-0.921875 -0.640625 -2.640625 -0.640625q-2.171875 0 -3.109375 0.609375q-0.625 0.421875 -0.625 1.109375q0 0.578125 0.546875 1.0q0.75 0.546875 5.125 1.546875q4.390625 0.984375 6.125 2.4375q1.71875 1.453125 1.71875 4.078125q0 2.84375 -2.390625 4.90625q-2.375 2.046875 -7.046875 2.046875q-4.234375 0 -6.703125 -1.71875q-2.46875 -1.71875 -3.234375 -4.671875z" fill-rule="nonzero"/><path fill="#000000" fill-opacity="0.0" d="m0 182.13649l264.40945 0l0 69.76378l-264.40945 0z" fill-rule="evenodd"/><path fill="#000000" d="m11.953125 229.53648l0 -28.640625l19.625 0l0 4.84375l-13.84375 0l0 6.78125l11.953125 0l0 4.84375l-11.953125 0l0 12.171875l-5.78125 0zm29.605469 0l-5.484375 0l0 -20.75l5.09375 0l0 2.953125q1.3125 -2.09375 2.359375 -2.75q1.046875 -0.671875 2.375 -0.671875q1.875 0 3.609375 1.046875l-1.703125 4.78125q-1.390625 -0.90625 -2.578125 -0.90625q-1.15625 0 -1.953125 0.640625q-0.796875 0.640625 -1.265625 2.296875q-0.453125 1.65625 -0.453125 6.953125l0 6.40625zm9.050781 -10.671875q0 -2.734375 1.34375 -5.28125q1.34375 -2.5625 3.8125 -3.90625q2.46875 -1.359375 5.515625 -1.359375q4.71875 0 7.71875 3.0625q3.015625 3.0625 3.015625 7.71875q0 4.71875 -3.046875 7.8125q-3.03125 3.09375 -7.640625 3.09375q-2.859375 0 -5.453125 -1.28125q-2.578125 -1.296875 -3.921875 -3.78125q-1.34375 -2.5 -1.34375 -6.078125zm5.625 0.296875q0 3.09375 1.453125 4.734375q1.46875 1.640625 3.625 1.640625q2.140625 0 3.59375 -1.640625q1.453125 -1.640625 1.453125 -4.765625q0 -3.046875 -1.453125 -4.6875q-1.453125 -1.640625 -3.59375 -1.640625q-2.15625 0 -3.625 1.640625q-1.453125 1.640625 -1.453125 4.71875zm19.667969 -10.375l5.046875 0l0 2.84375q2.71875 -3.3125 6.46875 -3.3125q2.0 0 3.453125 0.828125q1.46875 0.8125 2.40625 2.484375q1.375 -1.671875 2.953125 -2.484375q1.578125 -0.828125 3.375 -0.828125q2.28125 0 3.859375 0.9375q1.59375 0.921875 2.375 2.71875q0.5625 1.328125 0.5625 4.296875l0 13.265625l-5.484375 0l0 -11.859375q0 -3.078125 -0.5625 -3.984375q-0.765625 -1.171875 -2.34375 -1.171875q-1.15625 0 -2.171875 0.703125q-1.015625 0.703125 -1.46875 2.0625q-0.453125 1.359375 -0.453125 4.28125l0 9.96875l-5.484375 0l0 -11.375q0 -3.015625 -0.296875 -3.890625q-0.28125 -0.890625 -0.90625 -1.3125q-0.609375 -0.4375 -1.671875 -0.4375q-1.265625 0 -2.28125 0.6875q-1.015625 0.6875 -1.453125 1.984375q-0.4375 1.28125 -0.4375 4.265625l0 10.078125l-5.484375 0l0 -20.75zm36.003906 20.75l0 -28.640625l9.28125 0q5.28125 0 6.875 0.4375q2.46875 0.640625 4.125 2.796875q1.65625 2.15625 1.65625 5.578125q0 2.640625 -0.953125 4.4375q-0.953125 1.796875 -2.4375 2.828125q-1.46875 1.015625 -3.0 1.34375q-2.0625 0.421875 -5.984375 0.421875l-3.78125 0l0 10.796875l-5.78125 0zm5.78125 -23.796875l0 8.125l3.171875 0q3.421875 0 4.5625 -0.4375q1.15625 -0.453125 1.8125 -1.40625q0.65625 -0.96875 0.65625 -2.234375q0 -1.5625 -0.921875 -2.578125q-0.921875 -1.015625 -2.328125 -1.265625q-1.03125 -0.203125 -4.15625 -0.203125l-2.796875 0zm20.882812 -4.84375l10.5625 0q3.578125 0 5.453125 0.546875q2.515625 0.75 4.3125 2.640625q1.796875 1.890625 2.734375 4.640625q0.9375 2.75 0.9375 6.765625q0 3.53125 -0.875 6.09375q-1.078125 3.125 -3.0625 5.0625q-1.5 1.46875 -4.0625 2.28125q-1.921875 0.609375 -5.125 0.609375l-10.875 0l0 -28.640625zm5.78125 4.84375l0 18.96875l4.3125 0q2.421875 0 3.5 -0.265625q1.40625 -0.359375 2.328125 -1.1875q0.9375 -0.84375 1.515625 -2.765625q0.59375 -1.9375 0.59375 -5.25q0 -3.328125 -0.59375 -5.09375q-0.578125 -1.78125 -1.640625 -2.78125q-1.046875 -1.0 -2.671875 -1.34375q-1.203125 -0.28125 -4.75 -0.28125l-2.59375 0zm23.167969 23.796875l0 -28.640625l19.625 0l0 4.84375l-13.84375 0l0 6.78125l11.953125 0l0 4.84375l-11.953125 0l0 12.171875l-5.78125 0zm24.355469 0l0 -5.484375l5.484375 0l0 5.484375l-5.484375 0zm10.988281 -23.5625l0 -5.078125l5.5 0l0 5.078125l-5.5 0zm5.5 2.8125l0 20.109375q0 3.96875 -0.53125 5.59375q-0.515625 1.625 -1.984375 2.546875q-1.46875 0.921875 -3.765625 0.921875q-0.8125 0 -1.765625 -0.15625q-0.953125 -0.140625 -2.046875 -0.4375l0.96875 -4.6875q0.390625 0.078125 0.734375 0.125q0.34375 0.0625 0.625 0.0625q0.84375 0 1.375 -0.375q0.546875 -0.359375 0.71875 -0.875q0.171875 -0.5 0.171875 -3.03125l0 -19.796875l5.5 0zm3.8007812 14.828125l5.515625 -0.84375q0.34375 1.609375 1.421875 2.4375q1.078125 0.828125 3.0 0.828125q2.140625 0 3.203125 -0.78125q0.734375 -0.546875 0.734375 -1.46875q0 -0.625 -0.390625 -1.03125q-0.421875 -0.390625 -1.84375 -0.71875q-6.640625 -1.46875 -8.421875 -2.671875q-2.453125 -1.6875 -2.453125 -4.671875q0 -2.703125 2.125 -4.53125q2.125 -1.84375 6.609375 -1.84375q4.25 0 6.3125 1.390625q2.078125 1.390625 2.859375 4.109375l-5.171875 0.953125q-0.328125 -1.21875 -1.265625 -1.859375q-0.921875 -0.640625 -2.640625 -0.640625q-2.171875 0 -3.109375 0.609375q-0.625 0.421875 -0.625 1.109375q0 0.578125 0.546875 1.0q0.75 0.546875 5.125 1.546875q4.390625 0.984375 6.125 2.4375q1.71875 1.453125 1.71875 4.078125q0 2.84375 -2.390625 4.90625q-2.375 2.046875 -7.046875 2.046875q-4.234375 0 -6.703125 -1.71875q-2.46875 -1.71875 -3.234375 -4.671875z" fill-rule="nonzero"/><path fill="#000000" fill-opacity="0.0" d="m16.0 414.90814l248.40945 0l0 69.76376l-248.40945 0z" fill-rule="evenodd"/><path fill="#000000" d="m27.875 462.30814l0 -5.484375l5.484375 0l0 5.484375l-5.484375 0zm11.113281 0l0 -5.484375l5.484375 0l0 5.484375l-5.484375 0zm11.113281 0l0 -5.484375l5.484375 0l0 5.484375l-5.484375 0z" fill-rule="nonzero"/><path fill="#000000" fill-opacity="0.0" d="m613.52234 106.87664l264.40942 0l0 69.76379l-264.40942 0z" fill-rule="evenodd"/><path fill="#000000" d="m631.8817 154.27664l0 -23.796875l-8.5 0l0 -4.84375l22.75 0l0 4.84375l-8.46875 0l0 23.796875l-5.78125 0zm16.683594 -10.671875q0 -2.734375 1.34375 -5.28125q1.34375 -2.5625 3.8125 -3.90625q2.46875 -1.359375 5.515625 -1.359375q4.71875 0 7.71875 3.0625q3.015625 3.0625 3.015625 7.71875q0 4.71875 -3.046875 7.8125q-3.03125 3.09375 -7.640625 3.09375q-2.859375 0 -5.453125 -1.28125q-2.578125 -1.296875 -3.921875 -3.78125q-1.34375 -2.5 -1.34375 -6.078125zm5.625 0.296875q0 3.09375 1.453125 4.734375q1.46875 1.640625 3.625 1.640625q2.140625 0 3.59375 -1.640625q1.453125 -1.640625 1.453125 -4.765625q0 -3.046875 -1.453125 -4.6875q-1.453125 -1.640625 -3.59375 -1.640625q-2.15625 0 -3.625 1.640625q-1.453125 1.640625 -1.453125 4.71875zm20.105469 10.375l0 -28.640625l9.28125 0q5.28125 0 6.875 0.4375q2.46875 0.640625 4.125 2.796875q1.65625 2.15625 1.65625 5.578125q0 2.640625 -0.953125 4.4375q-0.953125 1.796875 -2.4375 2.828125q-1.46875 1.015625 -3.0 1.34375q-2.0625 0.421875 -5.984375 0.421875l-3.78125 0l0 10.796875l-5.78125 0zm5.78125 -23.796875l0 8.125l3.171875 0q3.421875 0 4.5625 -0.4375q1.15625 -0.453125 1.8125 -1.40625q0.65625 -0.96875 0.65625 -2.234375q0 -1.5625 -0.921875 -2.578125q-0.921875 -1.015625 -2.328125 -1.265625q-1.03125 -0.203125 -4.15625 -0.203125l-2.796875 0zm20.882812 -4.84375l10.5625 0q3.578125 0 5.453125 0.546875q2.515625 0.75 4.3125 2.640625q1.796875 1.890625 2.734375 4.640625q0.9375 2.75 0.9375 6.765625q0 3.53125 -0.875 6.09375q-1.078125 3.125 -3.0625 5.0625q-1.5 1.46875 -4.0625 2.28125q-1.921875 0.609375 -5.125 0.609375l-10.875 0l0 -28.640625zm5.78125 4.84375l0 18.96875l4.3125 0q2.421875 0 3.5 -0.265625q1.40625 -0.359375 2.328125 -1.1875q0.9375 -0.84375 1.515625 -2.765625q0.59375 -1.9375 0.59375 -5.25q0 -3.328125 -0.59375 -5.09375q-0.578125 -1.78125 -1.640625 -2.78125q-1.046875 -1.0 -2.671875 -1.34375q-1.203125 -0.28125 -4.75 -0.28125l-2.59375 0zm23.167969 23.796875l0 -28.640625l19.625 0l0 4.84375l-13.84375 0l0 6.78125l11.953125 0l0 4.84375l-11.953125 0l0 12.171875l-5.78125 0zm24.355469 0l0 -5.484375l5.484375 0l0 5.484375l-5.484375 0zm10.988281 -23.5625l0 -5.078125l5.5 0l0 5.078125l-5.5 0zm5.5 2.8125l0 20.109375q0 3.96875 -0.53125 5.59375q-0.515625 1.625 -1.984375 2.546875q-1.46875 0.921875 -3.765625 0.921875q-0.8125 0 -1.765625 -0.15625q-0.953125 -0.140625 -2.046875 -0.4375l0.96875 -4.6875q0.390625 0.078125 0.734375 0.125q0.34375 0.0625 0.625 0.0625q0.84375 0 1.375 -0.375q0.546875 -0.359375 0.71875 -0.875q0.171875 -0.5 0.171875 -3.03125l0 -19.796875l5.5 0zm3.8007812 14.828125l5.515625 -0.84375q0.34375 1.609375 1.421875 2.4375q1.078125 0.828125 3.0 0.828125q2.140625 0 3.203125 -0.78125q0.734375 -0.546875 0.734375 -1.46875q0 -0.625 -0.390625 -1.03125q-0.421875 -0.390625 -1.84375 -0.71875q-6.640625 -1.46875 -8.421875 -2.671875q-2.453125 -1.6875 -2.453125 -4.671875q0 -2.703125 2.125 -4.53125q2.125 -1.84375 6.609375 -1.84375q4.25 0 6.3125 1.390625q2.078125 1.390625 2.859375 4.109375l-5.171875 0.953125q-0.328125 -1.21875 -1.265625 -1.859375q-0.921875 -0.640625 -2.640625 -0.640625q-2.171875 0 -3.109375 0.609375q-0.625 0.421875 -0.625 1.109375q0 0.578125 0.546875 1.0q0.75 0.546875 5.125 1.546875q4.390625 0.984375 6.125 2.4375q1.71875 1.453125 1.71875 4.078125q0 2.84375 -2.390625 4.90625q-2.375 2.046875 -7.046875 2.046875q-4.234375 0 -6.703125 -1.71875q-2.46875 -1.71875 -3.234375 -4.671875z" fill-rule="nonzero"/><path fill="#000000" fill-opacity="0.0" d="m613.52234 263.1286l319.52753 0l0 69.763794l-319.52753 0z" fill-rule="evenodd"/><path fill="#000000" d="m631.8817 310.5286l0 -23.796875l-8.5 0l0 -4.84375l22.75 0l0 4.84375l-8.46875 0l0 23.796875l-5.78125 0zm16.683594 -10.671875q0 -2.734375 1.34375 -5.28125q1.34375 -2.5625 3.8125 -3.90625q2.46875 -1.359375 5.515625 -1.359375q4.71875 0 7.71875 3.0625q3.015625 3.0625 3.015625 7.71875q0 4.71875 -3.046875 7.8125q-3.03125 3.09375 -7.640625 3.09375q-2.859375 0 -5.453125 -1.28125q-2.578125 -1.296875 -3.921875 -3.78125q-1.34375 -2.5 -1.34375 -6.078125zm5.625 0.296875q0 3.09375 1.453125 4.734375q1.46875 1.640625 3.625 1.640625q2.140625 0 3.59375 -1.640625q1.453125 -1.640625 1.453125 -4.765625q0 -3.046875 -1.453125 -4.6875q-1.453125 -1.640625 -3.59375 -1.640625q-2.15625 0 -3.625 1.640625q-1.453125 1.640625 -1.453125 4.71875zm38.433594 -0.15625l5.609375 1.78125q-1.296875 4.6875 -4.296875 6.96875q-3.0 2.265625 -7.609375 2.265625q-5.703125 0 -9.375 -3.890625q-3.671875 -3.90625 -3.671875 -10.65625q0 -7.15625 3.6875 -11.109375q3.703125 -3.953125 9.71875 -3.953125q5.25 0 8.53125 3.109375q1.953125 1.828125 2.9375 5.265625l-5.734375 1.375q-0.5 -2.234375 -2.109375 -3.515625q-1.609375 -1.296875 -3.921875 -1.296875q-3.1875 0 -5.171875 2.296875q-1.96875 2.28125 -1.96875 7.390625q0 5.4375 1.953125 7.75q1.953125 2.296875 5.078125 2.296875q2.296875 0 3.953125 -1.46875q1.671875 -1.46875 2.390625 -4.609375zm9.261719 -0.140625q0 -2.734375 1.34375 -5.28125q1.34375 -2.5625 3.8125 -3.90625q2.46875 -1.359375 5.515625 -1.359375q4.71875 0 7.71875 3.0625q3.015625 3.0625 3.015625 7.71875q0 4.71875 -3.046875 7.8125q-3.03125 3.09375 -7.640625 3.09375q-2.859375 0 -5.453125 -1.28125q-2.578125 -1.296875 -3.921875 -3.78125q-1.34375 -2.5 -1.34375 -6.078125zm5.625 0.296875q0 3.09375 1.453125 4.734375q1.46875 1.640625 3.625 1.640625q2.140625 0 3.59375 -1.640625q1.453125 -1.640625 1.453125 -4.765625q0 -3.046875 -1.453125 -4.6875q-1.453125 -1.640625 -3.59375 -1.640625q-2.15625 0 -3.625 1.640625q-1.453125 1.640625 -1.453125 4.71875zm38.933594 10.375l-5.484375 0l0 -10.59375q0 -3.359375 -0.359375 -4.34375q-0.34375 -0.984375 -1.140625 -1.53125q-0.78125 -0.546875 -1.890625 -0.546875q-1.4375 0 -2.578125 0.78125q-1.125 0.78125 -1.546875 2.078125q-0.40625 1.28125 -0.40625 4.765625l0 9.390625l-5.5 0l0 -20.75l5.109375 0l0 3.046875q2.703125 -3.515625 6.828125 -3.515625q1.8125 0 3.3125 0.65625q1.515625 0.65625 2.28125 1.671875q0.78125 1.015625 1.078125 2.3125q0.296875 1.28125 0.296875 3.6875l0 12.890625zm15.089844 -20.75l0 4.375l-3.75 0l0 8.359375q0 2.546875 0.09375 2.96875q0.109375 0.421875 0.484375 0.703125q0.390625 0.265625 0.9375 0.265625q0.765625 0 2.203125 -0.53125l0.46875 4.25q-1.90625 0.828125 -4.328125 0.828125q-1.484375 0 -2.6875 -0.5q-1.1875 -0.5 -1.75 -1.28125q-0.546875 -0.796875 -0.765625 -2.140625q-0.171875 -0.96875 -0.171875 -3.875l0 -9.046875l-2.515625 0l0 -4.375l2.515625 0l0 -4.109375l5.515625 -3.203125l0 7.3125l3.75 0zm15.8203125 14.140625l5.46875 0.921875q-1.0625 3.015625 -3.34375 4.59375q-2.265625 1.5625 -5.6875 1.5625q-5.40625 0 -8.0 -3.53125q-2.0625 -2.84375 -2.0625 -7.15625q0 -5.15625 2.6875 -8.078125q2.703125 -2.921875 6.828125 -2.921875q4.625 0 7.296875 3.0625q2.6875 3.0625 2.5625 9.359375l-13.75 0q0.0625 2.453125 1.328125 3.8125q1.28125 1.34375 3.171875 1.34375q1.28125 0 2.15625 -0.703125q0.890625 -0.703125 1.34375 -2.265625zm0.3125 -5.546875q-0.0625 -2.375 -1.234375 -3.609375q-1.171875 -1.25 -2.859375 -1.25q-1.796875 0 -2.96875 1.3125q-1.171875 1.3125 -1.140625 3.546875l8.203125 0zm7.2773438 12.15625l7.484375 -10.6875l-7.171875 -10.0625l6.703125 0l3.671875 5.703125l3.859375 -5.703125l6.453125 0l-7.03125 9.828125l7.671875 10.921875l-6.734375 0l-4.21875 -6.421875l-4.265625 6.421875l-6.421875 0zm34.402344 -20.75l0 4.375l-3.75 0l0 8.359375q0 2.546875 0.09375 2.96875q0.109375 0.421875 0.484375 0.703125q0.390625 0.265625 0.9375 0.265625q0.765625 0 2.203125 -0.53125l0.46875 4.25q-1.90625 0.828125 -4.328125 0.828125q-1.484375 0 -2.6875 -0.5q-1.1875 -0.5 -1.75 -1.28125q-0.546875 -0.796875 -0.765625 -2.140625q-0.171875 -0.96875 -0.171875 -3.875l0 -9.046875l-2.515625 0l0 -4.375l2.515625 0l0 -4.109375l5.515625 -3.203125l0 7.3125l3.75 0zm21.164062 15.65625l0 5.09375l-19.234375 0q0.3125 -2.890625 1.875 -5.46875q1.5625 -2.59375 6.171875 -6.875q3.703125 -3.453125 4.546875 -4.6875q1.140625 -1.703125 1.140625 -3.359375q0 -1.84375 -1.0 -2.828125q-0.984375 -0.984375 -2.71875 -0.984375q-1.71875 0 -2.734375 1.046875q-1.015625 1.03125 -1.171875 3.421875l-5.46875 -0.546875q0.484375 -4.53125 3.0625 -6.5q2.578125 -1.96875 6.453125 -1.96875q4.234375 0 6.65625 2.28125q2.421875 2.28125 2.421875 5.6875q0 1.9375 -0.703125 3.6875q-0.6875 1.734375 -2.1875 3.65625q-1.0 1.265625 -3.59375 3.65625q-2.59375 2.375 -3.296875 3.15625q-0.6875 0.78125 -1.109375 1.53125l10.890625 0zm4.9023438 -23.546875l10.5625 0q3.578125 0 5.453125 0.546875q2.515625 0.75 4.3125 2.640625q1.796875 1.890625 2.734375 4.640625q0.9375 2.75 0.9375 6.765625q0 3.53125 -0.875 6.09375q-1.078125 3.125 -3.0625 5.0625q-1.5 1.46875 -4.0625 2.28125q-1.921875 0.609375 -5.125 0.609375l-10.875 0l0 -28.640625zm5.78125 4.84375l0 18.96875l4.3125 0q2.421875 0 3.5 -0.265625q1.40625 -0.359375 2.328125 -1.1875q0.9375 -0.84375 1.515625 -2.765625q0.59375 -1.9375 0.59375 -5.25q0 -3.328125 -0.59375 -5.09375q-0.578125 -1.78125 -1.640625 -2.78125q-1.046875 -1.0 -2.671875 -1.34375q-1.203125 -0.28125 -4.75 -0.28125l-2.59375 0zm23.089844 23.796875l0 -5.484375l5.484375 0l0 5.484375l-5.484375 0zm10.988281 -23.5625l0 -5.078125l5.5 0l0 5.078125l-5.5 0zm5.5 2.8125l0 20.109375q0 3.96875 -0.53125 5.59375q-0.515625 1.625 -1.984375 2.546875q-1.46875 0.921875 -3.765625 0.921875q-0.8125 0 -1.765625 -0.15625q-0.953125 -0.140625 -2.046875 -0.4375l0.96875 -4.6875q0.390625 0.078125 0.734375 0.125q0.34375 0.0625 0.625 0.0625q0.84375 0 1.375 -0.375q0.546875 -0.359375 0.71875 -0.875q0.171875 -0.5 0.171875 -3.03125l0 -19.796875l5.5 0zm3.8007812 14.828125l5.515625 -0.84375q0.34375 1.609375 1.421875 2.4375q1.078125 0.828125 3.0 0.828125q2.140625 0 3.203125 -0.78125q0.734375 -0.546875 0.734375 -1.46875q0 -0.625 -0.390625 -1.03125q-0.421875 -0.390625 -1.84375 -0.71875q-6.640625 -1.46875 -8.421875 -2.671875q-2.453125 -1.6875 -2.453125 -4.671875q0 -2.703125 2.125 -4.53125q2.125 -1.84375 6.609375 -1.84375q4.25 0 6.3125 1.390625q2.078125 1.390625 2.859375 4.109375l-5.171875 0.953125q-0.328125 -1.21875 -1.265625 -1.859375q-0.921875 -0.640625 -2.640625 -0.640625q-2.171875 0 -3.109375 0.609375q-0.625 0.421875 -0.625 1.109375q0 0.578125 0.546875 1.0q0.75 0.546875 5.125 1.546875q4.390625 0.984375 6.125 2.4375q1.71875 1.453125 1.71875 4.078125q0 2.84375 -2.390625 4.90625q-2.375 2.046875 -7.046875 2.046875q-4.234375 0 -6.703125 -1.71875q-2.46875 -1.71875 -3.234375 -4.671875z" fill-rule="nonzero"/><path fill="#000000" fill-opacity="0.0" d="m613.52234 354.1286l177.76373 0l0 69.763794l-177.76373 0z" fill-rule="evenodd"/><path fill="#000000" d="m625.39734 401.5286l0 -5.484375l5.484375 0l0 5.484375l-5.484375 0zm11.113281 0l0 -5.484375l5.484375 0l0 5.484375l-5.484375 0zm11.113281 0l0 -5.484375l5.484375 0l0 5.484375l-5.484375 0z" fill-rule="nonzero"/><path fill="#000000" fill-opacity="0.0" d="m264.40945 141.75853l163.49606 96.944885" fill-rule="evenodd"/><path stroke="#000000" stroke-width="3.0" stroke-linejoin="round" stroke-linecap="butt" d="m264.40945 141.75853l148.01324 87.76436" fill-rule="evenodd"/><path fill="#000000" stroke="#000000" stroke-width="3.0" stroke-linecap="butt" d="m409.8954 233.78513l14.237732 2.6814423l-9.183136 -11.205933z" fill-rule="evenodd"/><path fill="#000000" fill-opacity="0.0" d="m264.40945 217.01837l155.93701 40.0" fill-rule="evenodd"/><path stroke="#000000" stroke-width="3.0" stroke-linejoin="round" stroke-linecap="butt" d="m264.40945 217.01837l138.50146 35.527557" fill-rule="evenodd"/><path fill="#000000" stroke="#000000" stroke-width="3.0" stroke-linecap="butt" d="m401.67972 257.34573l14.418579 -1.4170685l-11.956146 -8.182541z" fill-rule="evenodd"/><path fill="#000000" fill-opacity="0.0" d="m264.40945 449.79004l163.49606 -174.4567" fill-rule="evenodd"/><path stroke="#000000" stroke-width="3.0" stroke-linejoin="round" stroke-linecap="butt" d="m264.40945 449.79004l151.18741 -161.32288" fill-rule="evenodd"/><path fill="#000000" stroke="#000000" stroke-width="3.0" stroke-linecap="butt" d="m419.21246 291.8556l5.694031 -13.322205l-12.925232 6.5453186z" fill-rule="evenodd"/><path fill="#000000" fill-opacity="0.0" d="m464.50043 238.71155l149.00787 -96.944885" fill-rule="evenodd"/><path stroke="#000000" stroke-width="3.0" stroke-linejoin="round" stroke-linecap="butt" d="m464.5004 238.71155l133.92001 -87.12871" fill-rule="evenodd"/><path fill="#000000" stroke="#000000" stroke-width="3.0" stroke-linecap="butt" d="m601.12274 155.73634l8.709412 -11.577972l-14.113953 3.2709656z" fill-rule="evenodd"/><path fill="#000000" fill-opacity="0.0" d="m472.07874 257.01837l141.44885 41.007874" fill-rule="evenodd"/><path stroke="#000000" stroke-width="3.0" stroke-linejoin="round" stroke-linecap="butt" d="m472.07874 257.01837l124.160706 35.99582" fill-rule="evenodd"/><path fill="#000000" stroke="#000000" stroke-width="3.0" stroke-linecap="butt" d="m594.8597 297.7734l14.455627 -0.9683533l-11.696106 -8.550079z" fill-rule="evenodd"/><path fill="#000000" fill-opacity="0.0" d="m464.50043 275.3252l149.00787 113.700806" fill-rule="evenodd"/><path stroke="#000000" stroke-width="3.0" stroke-linejoin="round" stroke-linecap="butt" d="m464.5004 275.3252l134.69803 102.78165" fill-rule="evenodd"/><path fill="#000000" stroke="#000000" stroke-width="3.0" stroke-linecap="butt" d="m596.1925 382.04617l13.829163 4.3193665l-7.817322 -12.198059z" fill-rule="evenodd"/><path fill="#000000" fill-opacity="0.0" d="m0 3.28084E-4l195.68504 0l0 69.76378l-195.68504 0z" fill-rule="evenodd"/><path fill="#000000" d="m12.5 55.080326l0 -34.359375l11.125 0q6.328125 0 8.25 0.515625q2.953125 0.765625 4.9375 3.359375q2.0 2.59375 2.0 6.6875q0 3.171875 -1.15625 5.328125q-1.140625 2.15625 -2.90625 3.390625q-1.765625 1.21875 -3.59375 1.625q-2.484375 0.484375 -7.203125 0.484375l-4.515625 0l0 12.96875l-6.9375 0zm6.9375 -28.546875l0 9.75l3.796875 0q4.09375 0 5.46875 -0.53125q1.390625 -0.546875 2.171875 -1.6875q0.796875 -1.15625 0.796875 -2.6875q0 -1.875 -1.109375 -3.09375q-1.09375 -1.21875 -2.78125 -1.515625q-1.25 -0.234375 -5.0 -0.234375l-3.34375 0zm29.953125 11.25l-5.984375 -1.078125q1.015625 -3.609375 3.46875 -5.34375q2.46875 -1.734375 7.3125 -1.734375q4.40625 0 6.5625 1.046875q2.15625 1.03125 3.03125 2.640625q0.890625 1.609375 0.890625 5.890625l-0.078125 7.6875q0 3.28125 0.3125 4.84375q0.328125 1.5625 1.1875 3.34375l-6.515625 0q-0.25 -0.65625 -0.625 -1.953125q-0.171875 -0.578125 -0.234375 -0.765625q-1.6875 1.640625 -3.609375 2.46875q-1.921875 0.8125 -4.109375 0.8125q-3.84375 0 -6.0625 -2.078125q-2.203125 -2.09375 -2.203125 -5.28125q0 -2.109375 1.0 -3.765625q1.015625 -1.65625 2.828125 -2.53125q1.8125 -0.875 5.234375 -1.53125q4.625 -0.875 6.40625 -1.625l0 -0.65625q0 -1.890625 -0.9375 -2.703125q-0.9375 -0.8125 -3.546875 -0.8125q-1.75 0 -2.734375 0.703125q-0.984375 0.6875 -1.59375 2.421875zm8.8125 5.34375q-1.265625 0.421875 -4.015625 1.015625q-2.734375 0.578125 -3.578125 1.140625q-1.296875 0.90625 -1.296875 2.3125q0 1.390625 1.03125 2.40625q1.03125 1.0 2.625 1.0q1.78125 0 3.40625 -1.171875q1.1875 -0.890625 1.5625 -2.1875q0.265625 -0.84375 0.265625 -3.203125l0 -1.3125zm19.257812 11.953125l-6.578125 0l0 -24.890625l6.109375 0l0 3.53125q1.578125 -2.5 2.828125 -3.296875q1.25 -0.796875 2.84375 -0.796875q2.25 0 4.34375 1.234375l-2.046875 5.75q-1.65625 -1.078125 -3.09375 -1.078125q-1.375 0 -2.34375 0.765625q-0.953125 0.75 -1.515625 2.75q-0.546875 1.984375 -0.546875 8.34375l0 7.6875zm10.0546875 -7.109375l6.609375 -1.0q0.421875 1.921875 1.703125 2.921875q1.296875 0.984375 3.625 0.984375q2.546875 0 3.84375 -0.9375q0.859375 -0.65625 0.859375 -1.75q0 -0.75 -0.46875 -1.25q-0.484375 -0.46875 -2.203125 -0.859375q-7.96875 -1.765625 -10.09375 -3.21875q-2.953125 -2.015625 -2.953125 -5.59375q0 -3.234375 2.546875 -5.4375q2.5625 -2.203125 7.921875 -2.203125q5.109375 0 7.59375 1.671875q2.484375 1.65625 3.421875 4.90625l-6.203125 1.15625q-0.40625 -1.453125 -1.515625 -2.21875q-1.109375 -0.78125 -3.171875 -0.78125q-2.609375 0 -3.734375 0.71875q-0.75 0.515625 -0.75 1.34375q0 0.703125 0.65625 1.1875q0.890625 0.65625 6.15625 1.859375q5.265625 1.1875 7.34375 2.921875q2.0625 1.765625 2.0625 4.90625q0 3.421875 -2.859375 5.890625q-2.859375 2.453125 -8.453125 2.453125q-5.09375 0 -8.0625 -2.0625q-2.953125 -2.0625 -3.875 -5.609375zm43.429688 -0.8125l6.5625 1.09375q-1.265625 3.609375 -4.0 5.5q-2.71875 1.890625 -6.828125 1.890625q-6.484375 0 -9.609375 -4.25q-2.453125 -3.390625 -2.453125 -8.578125q0 -6.1875 3.234375 -9.6875q3.234375 -3.5 8.171875 -3.5q5.5625 0 8.765625 3.671875q3.21875 3.65625 3.078125 11.234375l-16.5 0q0.0625 2.921875 1.578125 4.5625q1.53125 1.625 3.8125 1.625q1.546875 0 2.59375 -0.84375q1.0625 -0.84375 1.59375 -2.71875zm0.375 -6.65625q-0.0625 -2.859375 -1.46875 -4.34375q-1.40625 -1.5 -3.421875 -1.5q-2.15625 0 -3.5625 1.578125q-1.40625 1.5625 -1.390625 4.265625l9.84375 0zm18.210938 14.578125l-6.578125 0l0 -24.890625l6.109375 0l0 3.53125q1.578125 -2.5 2.828125 -3.296875q1.25 -0.796875 2.84375 -0.796875q2.25 0 4.34375 1.234375l-2.046875 5.75q-1.65625 -1.078125 -3.09375 -1.078125q-1.375 0 -2.34375 0.765625q-0.953125 0.75 -1.515625 2.75q-0.546875 1.984375 -0.546875 8.34375l0 7.6875z" fill-rule="nonzero"/><path fill="#000000" fill-opacity="0.0" d="m611.5171 3.28084E-4l195.685 0l0 69.76378l-195.685 0z" fill-rule="evenodd"/><path fill="#000000" d="m628.8921 55.080326l-8.203125 -34.359375l7.09375 0l5.1875 23.59375l6.28125 -23.59375l8.25 0l6.015625 24.0l5.28125 -24.0l6.984375 0l-8.34375 34.359375l-7.359375 0l-6.84375 -25.6875l-6.828125 25.6875l-7.515625 0zm46.679688 0l-6.578125 0l0 -24.890625l6.109375 0l0 3.53125q1.578125 -2.5 2.828125 -3.296875q1.25 -0.796875 2.84375 -0.796875q2.25 0 4.34375 1.234375l-2.046875 5.75q-1.65625 -1.078125 -3.09375 -1.078125q-1.375 0 -2.34375 0.765625q-0.953125 0.75 -1.515625 2.75q-0.546875 1.984375 -0.546875 8.34375l0 7.6875zm12.3828125 -28.265625l0 -6.09375l6.578125 0l0 6.09375l-6.578125 0zm0 28.265625l0 -24.890625l6.578125 0l0 24.890625l-6.578125 0zm24.742188 -24.890625l0 5.25l-4.5 0l0 10.03125q0 3.046875 0.125 3.546875q0.140625 0.5 0.59375 0.828125q0.453125 0.328125 1.109375 0.328125q0.921875 0 2.65625 -0.625l0.5625 5.109375q-2.296875 0.984375 -5.203125 0.984375q-1.78125 0 -3.21875 -0.59375q-1.421875 -0.609375 -2.09375 -1.546875q-0.671875 -0.953125 -0.921875 -2.578125q-0.21875 -1.140625 -0.21875 -4.640625l0 -10.84375l-3.015625 0l0 -5.25l3.015625 0l0 -4.953125l6.609375 -3.84375l0 8.796875l4.5 0zm18.984375 16.96875l6.5625 1.09375q-1.265625 3.609375 -4.0 5.5q-2.71875 1.890625 -6.828125 1.890625q-6.484375 0 -9.609375 -4.25q-2.453125 -3.390625 -2.453125 -8.578125q0 -6.1875 3.234375 -9.6875q3.234375 -3.5 8.171875 -3.5q5.5625 0 8.765625 3.671875q3.21875 3.65625 3.078125 11.234375l-16.5 0q0.0625 2.921875 1.578125 4.5625q1.53125 1.625 3.8125 1.625q1.546875 0 2.59375 -0.84375q1.0625 -0.84375 1.59375 -2.71875zm0.375 -6.65625q-0.0625 -2.859375 -1.46875 -4.34375q-1.40625 -1.5 -3.421875 -1.5q-2.15625 0 -3.5625 1.578125q-1.40625 1.5625 -1.390625 4.265625l9.84375 0zm18.210938 14.578125l-6.578125 0l0 -24.890625l6.109375 0l0 3.53125q1.578125 -2.5 2.828125 -3.296875q1.25 -0.796875 2.84375 -0.796875q2.25 0 4.34375 1.234375l-2.046875 5.75q-1.65625 -1.078125 -3.09375 -1.078125q-1.375 0 -2.34375 0.765625q-0.953125 0.75 -1.515625 2.75q-0.546875 1.984375 -0.546875 8.34375l0 7.6875z" fill-rule="nonzero"/><path fill="#000000" fill-opacity="0.0" d="m-2.6496062 84.43307l978.6456 0" fill-rule="evenodd"/><path stroke="#000000" stroke-width="3.0" stroke-linejoin="round" stroke-linecap="butt" d="m-2.6496062 84.43307l978.6456 0" fill-rule="evenodd"/><path fill="#000000" fill-opacity="0.0" d="m0 260.8924l264.40945 0l0 69.76376l-264.40945 0z" fill-rule="evenodd"/><path fill="#000000" d="m11.953125 308.2924l0 -28.640625l19.625 0l0 4.84375l-13.84375 0l0 6.78125l11.953125 0l0 4.84375l-11.953125 0l0 12.171875l-5.78125 0zm29.605469 0l-5.484375 0l0 -20.75l5.09375 0l0 2.953125q1.3125 -2.09375 2.359375 -2.75q1.046875 -0.671875 2.375 -0.671875q1.875 0 3.609375 1.046875l-1.703125 4.78125q-1.390625 -0.90625 -2.578125 -0.90625q-1.15625 0 -1.953125 0.640625q-0.796875 0.640625 -1.265625 2.296875q-0.453125 1.65625 -0.453125 6.953125l0 6.40625zm9.050781 -10.671875q0 -2.734375 1.34375 -5.28125q1.34375 -2.5625 3.8125 -3.90625q2.46875 -1.359375 5.515625 -1.359375q4.71875 0 7.71875 3.0625q3.015625 3.0625 3.015625 7.71875q0 4.71875 -3.046875 7.8125q-3.03125 3.09375 -7.640625 3.09375q-2.859375 0 -5.453125 -1.28125q-2.578125 -1.296875 -3.921875 -3.78125q-1.34375 -2.5 -1.34375 -6.078125zm5.625 0.296875q0 3.09375 1.453125 4.734375q1.46875 1.640625 3.625 1.640625q2.140625 0 3.59375 -1.640625q1.453125 -1.640625 1.453125 -4.765625q0 -3.046875 -1.453125 -4.6875q-1.453125 -1.640625 -3.59375 -1.640625q-2.15625 0 -3.625 1.640625q-1.453125 1.640625 -1.453125 4.71875zm19.667969 -10.375l5.046875 0l0 2.84375q2.71875 -3.3125 6.46875 -3.3125q2.0 0 3.453125 0.828125q1.46875 0.8125 2.40625 2.484375q1.375 -1.671875 2.953125 -2.484375q1.578125 -0.828125 3.375 -0.828125q2.28125 0 3.859375 0.9375q1.59375 0.921875 2.375 2.71875q0.5625 1.328125 0.5625 4.296875l0 13.265625l-5.484375 0l0 -11.859375q0 -3.078125 -0.5625 -3.984375q-0.765625 -1.171875 -2.34375 -1.171875q-1.15625 0 -2.171875 0.703125q-1.015625 0.703125 -1.46875 2.0625q-0.453125 1.359375 -0.453125 4.28125l0 9.96875l-5.484375 0l0 -11.375q0 -3.015625 -0.296875 -3.890625q-0.28125 -0.890625 -0.90625 -1.3125q-0.609375 -0.4375 -1.671875 -0.4375q-1.265625 0 -2.28125 0.6875q-1.015625 0.6875 -1.453125 1.984375q-0.4375 1.28125 -0.4375 4.265625l0 10.078125l-5.484375 0l0 -20.75zm40.066406 20.75l-6.828125 -28.640625l5.921875 0l4.3125 19.671875l5.234375 -19.671875l6.875 0l5.015625 20.0l4.390625 -20.0l5.828125 0l-6.953125 28.640625l-6.140625 0l-5.703125 -21.40625l-5.671875 21.40625l-6.28125 0zm33.61328 0l0 -28.640625l8.65625 0l5.203125 19.53125l5.125 -19.53125l8.671875 0l0 28.640625l-5.359375 0l0 -22.546875l-5.6875 22.546875l-5.5625 0l-5.671875 -22.546875l0 22.546875l-5.375 0zm33.445312 0l0 -28.640625l19.625 0l0 4.84375l-13.84375 0l0 6.78125l11.953125 0l0 4.84375l-11.953125 0l0 12.171875l-5.78125 0zm24.355469 0l0 -5.484375l5.484375 0l0 5.484375l-5.484375 0zm10.988281 -23.5625l0 -5.078125l5.5 0l0 5.078125l-5.5 0zm5.5 2.8125l0 20.109375q0 3.96875 -0.53125 5.59375q-0.515625 1.625 -1.984375 2.546875q-1.46875 0.921875 -3.765625 0.921875q-0.8125 0 -1.765625 -0.15625q-0.953125 -0.140625 -2.046875 -0.4375l0.96875 -4.6875q0.390625 0.078125 0.734375 0.125q0.34375 0.0625 0.625 0.0625q0.84375 0 1.375 -0.375q0.546875 -0.359375 0.71875 -0.875q0.171875 -0.5 0.171875 -3.03125l0 -19.796875l5.5 0zm3.8007812 14.828125l5.515625 -0.84375q0.34375 1.609375 1.421875 2.4375q1.078125 0.828125 3.0 0.828125q2.140625 0 3.203125 -0.78125q0.734375 -0.546875 0.734375 -1.46875q0 -0.625 -0.390625 -1.03125q-0.421875 -0.390625 -1.84375 -0.71875q-6.640625 -1.46875 -8.421875 -2.671875q-2.453125 -1.6875 -2.453125 -4.671875q0 -2.703125 2.125 -4.53125q2.125 -1.84375 6.609375 -1.84375q4.25 0 6.3125 1.390625q2.078125 1.390625 2.859375 4.109375l-5.171875 0.953125q-0.328125 -1.21875 -1.265625 -1.859375q-0.921875 -0.640625 -2.640625 -0.640625q-2.171875 0 -3.109375 0.609375q-0.625 0.421875 -0.625 1.109375q0 0.578125 0.546875 1.0q0.75 0.546875 5.125 1.546875q4.390625 0.984375 6.125 2.4375q1.71875 1.453125 1.71875 4.078125q0 2.84375 -2.390625 4.90625q-2.375 2.046875 -7.046875 2.046875q-4.234375 0 -6.703125 -1.71875q-2.46875 -1.71875 -3.234375 -4.671875z" fill-rule="nonzero"/><path fill="#000000" fill-opacity="0.0" d="m0 347.6483l264.40945 0l0 69.763794l-264.40945 0z" fill-rule="evenodd"/><path fill="#000000" d="m11.953125 395.04828l0 -28.640625l19.625 0l0 4.84375l-13.84375 0l0 6.78125l11.953125 0l0 4.84375l-11.953125 0l0 12.171875l-5.78125 0zm29.605469 0l-5.484375 0l0 -20.75l5.09375 0l0 2.953125q1.3125 -2.09375 2.359375 -2.75q1.046875 -0.671875 2.375 -0.671875q1.875 0 3.609375 1.046875l-1.703125 4.78125q-1.390625 -0.90625 -2.578125 -0.90625q-1.15625 0 -1.953125 0.640625q-0.796875 0.640625 -1.265625 2.296875q-0.453125 1.65625 -0.453125 6.953125l0 6.40625zm9.050781 -10.671875q0 -2.734375 1.34375 -5.28125q1.34375 -2.5625 3.8125 -3.90625q2.46875 -1.359375 5.515625 -1.359375q4.71875 0 7.71875 3.0625q3.015625 3.0625 3.015625 7.71875q0 4.71875 -3.046875 7.8125q-3.03125 3.09375 -7.640625 3.09375q-2.859375 0 -5.453125 -1.28125q-2.578125 -1.296875 -3.921875 -3.78125q-1.34375 -2.5 -1.34375 -6.078125zm5.625 0.296875q0 3.09375 1.453125 4.734375q1.46875 1.640625 3.625 1.640625q2.140625 0 3.59375 -1.640625q1.453125 -1.640625 1.453125 -4.765625q0 -3.046875 -1.453125 -4.6875q-1.453125 -1.640625 -3.59375 -1.640625q-2.15625 0 -3.625 1.640625q-1.453125 1.640625 -1.453125 4.71875zm19.667969 -10.375l5.046875 0l0 2.84375q2.71875 -3.3125 6.46875 -3.3125q2.0 0 3.453125 0.828125q1.46875 0.8125 2.40625 2.484375q1.375 -1.671875 2.953125 -2.484375q1.578125 -0.828125 3.375 -0.828125q2.28125 0 3.859375 0.9375q1.59375 0.921875 2.375 2.71875q0.5625 1.328125 0.5625 4.296875l0 13.265625l-5.484375 0l0 -11.859375q0 -3.078125 -0.5625 -3.984375q-0.765625 -1.171875 -2.34375 -1.171875q-1.15625 0 -2.171875 0.703125q-1.015625 0.703125 -1.46875 2.0625q-0.453125 1.359375 -0.453125 4.28125l0 9.96875l-5.484375 0l0 -11.375q0 -3.015625 -0.296875 -3.890625q-0.28125 -0.890625 -0.90625 -1.3125q-0.609375 -0.4375 -1.671875 -0.4375q-1.265625 0 -2.28125 0.6875q-1.015625 0.6875 -1.453125 1.984375q-0.4375 1.28125 -0.4375 4.265625l0 10.078125l-5.484375 0l0 -20.75zm36.003906 20.75l0 -28.640625l21.234375 0l0 4.84375l-15.453125 0l0 6.359375l14.375 0l0 4.8125l-14.375 0l0 7.796875l16.0 0l0 4.828125l-21.78125 0zm26.601562 0l0 -28.640625l8.65625 0l5.203125 19.53125l5.125 -19.53125l8.671875 0l0 28.640625l-5.359375 0l0 -22.546875l-5.6875 22.546875l-5.5625 0l-5.671875 -22.546875l0 22.546875l-5.375 0zm33.445312 0l0 -28.640625l19.625 0l0 4.84375l-13.84375 0l0 6.78125l11.953125 0l0 4.84375l-11.953125 0l0 12.171875l-5.78125 0zm24.355469 0l0 -5.484375l5.484375 0l0 5.484375l-5.484375 0zm10.988281 -23.5625l0 -5.078125l5.5 0l0 5.078125l-5.5 0zm5.5 2.8125l0 20.109375q0 3.96875 -0.53125 5.59375q-0.515625 1.625 -1.984375 2.546875q-1.46875 0.921875 -3.765625 0.921875q-0.8125 0 -1.765625 -0.15625q-0.953125 -0.140625 -2.046875 -0.4375l0.96875 -4.6875q0.390625 0.078125 0.734375 0.125q0.34375 0.0625 0.625 0.0625q0.84375 0 1.375 -0.375q0.546875 -0.359375 0.71875 -0.875q0.171875 -0.5 0.171875 -3.03125l0 -19.796875l5.5 0zm3.8007812 14.828125l5.515625 -0.84375q0.34375 1.609375 1.421875 2.4375q1.078125 0.828125 3.0 0.828125q2.140625 0 3.203125 -0.78125q0.734375 -0.546875 0.734375 -1.46875q0 -0.625 -0.390625 -1.03125q-0.421875 -0.390625 -1.84375 -0.71875q-6.640625 -1.46875 -8.421875 -2.671875q-2.453125 -1.6875 -2.453125 -4.671875q0 -2.703125 2.125 -4.53125q2.125 -1.84375 6.609375 -1.84375q4.25 0 6.3125 1.390625q2.078125 1.390625 2.859375 4.109375l-5.171875 0.953125q-0.328125 -1.21875 -1.265625 -1.859375q-0.921875 -0.640625 -2.640625 -0.640625q-2.171875 0 -3.109375 0.609375q-0.625 0.421875 -0.625 1.109375q0 0.578125 0.546875 1.0q0.75 0.546875 5.125 1.546875q4.390625 0.984375 6.125 2.4375q1.71875 1.453125 1.71875 4.078125q0 2.84375 -2.390625 4.90625q-2.375 2.046875 -7.046875 2.046875q-4.234375 0 -6.703125 -1.71875q-2.46875 -1.71875 -3.234375 -4.671875z" fill-rule="nonzero"/><path fill="#000000" fill-opacity="0.0" d="m264.40945 295.7743l155.93701 -38.740173" fill-rule="evenodd"/><path stroke="#000000" stroke-width="3.0" stroke-linejoin="round" stroke-linecap="butt" d="m264.40945 295.7743l138.46802 -34.40027" fill-rule="evenodd"/><path fill="#000000" stroke="#000000" stroke-width="3.0" stroke-linecap="butt" d="m404.0722 266.18304l12.017914 -8.091492l-14.407379 -1.5265503z" fill-rule="evenodd"/><path fill="#000000" fill-opacity="0.0" d="m264.40945 382.53018l163.49606 -107.212585" fill-rule="evenodd"/><path stroke="#000000" stroke-width="3.0" stroke-linejoin="round" stroke-linecap="butt" d="m264.40945 382.53018l148.44373 -97.34204" fill-rule="evenodd"/><path fill="#000000" stroke="#000000" stroke-width="3.0" stroke-linecap="butt" d="m415.57047 289.33188l8.6675415 -11.609314l-14.102051 3.3218384z" fill-rule="evenodd"/><path fill="#000000" fill-opacity="0.0" d="m613.52234 185.00262l264.40942 0l0 69.76378l-264.40942 0z" fill-rule="evenodd"/><path fill="#000000" d="m631.8817 232.40262l0 -23.796875l-8.5 0l0 -4.84375l22.75 0l0 4.84375l-8.46875 0l0 23.796875l-5.78125 0zm16.683594 -10.671875q0 -2.734375 1.34375 -5.28125q1.34375 -2.5625 3.8125 -3.90625q2.46875 -1.359375 5.515625 -1.359375q4.71875 0 7.71875 3.0625q3.015625 3.0625 3.015625 7.71875q0 4.71875 -3.046875 7.8125q-3.03125 3.09375 -7.640625 3.09375q-2.859375 0 -5.453125 -1.28125q-2.578125 -1.296875 -3.921875 -3.78125q-1.34375 -2.5 -1.34375 -6.078125zm5.625 0.296875q0 3.09375 1.453125 4.734375q1.46875 1.640625 3.625 1.640625q2.140625 0 3.59375 -1.640625q1.453125 -1.640625 1.453125 -4.765625q0 -3.046875 -1.453125 -4.6875q-1.453125 -1.640625 -3.59375 -1.640625q-2.15625 0 -3.625 1.640625q-1.453125 1.640625 -1.453125 4.71875zm20.105469 10.375l0 -28.640625l21.234375 0l0 4.84375l-15.453125 0l0 6.359375l14.375 0l0 4.8125l-14.375 0l0 7.796875l16.0 0l0 4.828125l-21.78125 0zm26.601562 0l0 -28.640625l8.65625 0l5.203125 19.53125l5.125 -19.53125l8.671875 0l0 28.640625l-5.359375 0l0 -22.546875l-5.6875 22.546875l-5.5625 0l-5.671875 -22.546875l0 22.546875l-5.375 0zm33.445312 0l0 -28.640625l19.625 0l0 4.84375l-13.84375 0l0 6.78125l11.953125 0l0 4.84375l-11.953125 0l0 12.171875l-5.78125 0zm24.355469 0l0 -5.484375l5.484375 0l0 5.484375l-5.484375 0zm10.988281 -23.5625l0 -5.078125l5.5 0l0 5.078125l-5.5 0zm5.5 2.8125l0 20.109375q0 3.96875 -0.53125 5.59375q-0.515625 1.625 -1.984375 2.546875q-1.46875 0.921875 -3.765625 0.921875q-0.8125 0 -1.765625 -0.15625q-0.953125 -0.140625 -2.046875 -0.4375l0.96875 -4.6875q0.390625 0.078125 0.734375 0.125q0.34375 0.0625 0.625 0.0625q0.84375 0 1.375 -0.375q0.546875 -0.359375 0.71875 -0.875q0.171875 -0.5 0.171875 -3.03125l0 -19.796875l5.5 0zm3.8007812 14.828125l5.515625 -0.84375q0.34375 1.609375 1.421875 2.4375q1.078125 0.828125 3.0 0.828125q2.140625 0 3.203125 -0.78125q0.734375 -0.546875 0.734375 -1.46875q0 -0.625 -0.390625 -1.03125q-0.421875 -0.390625 -1.84375 -0.71875q-6.640625 -1.46875 -8.421875 -2.671875q-2.453125 -1.6875 -2.453125 -4.671875q0 -2.703125 2.125 -4.53125q2.125 -1.84375 6.609375 -1.84375q4.25 0 6.3125 1.390625q2.078125 1.390625 2.859375 4.109375l-5.171875 0.953125q-0.328125 -1.21875 -1.265625 -1.859375q-0.921875 -0.640625 -2.640625 -0.640625q-2.171875 0 -3.109375 0.609375q-0.625 0.421875 -0.625 1.109375q0 0.578125 0.546875 1.0q0.75 0.546875 5.125 1.546875q4.390625 0.984375 6.125 2.4375q1.71875 1.453125 1.71875 4.078125q0 2.84375 -2.390625 4.90625q-2.375 2.046875 -7.046875 2.046875q-4.234375 0 -6.703125 -1.71875q-2.46875 -1.71875 -3.234375 -4.671875z" fill-rule="nonzero"/><path fill="#000000" fill-opacity="0.0" d="m472.07874 257.01837l141.44885 -37.13385" fill-rule="evenodd"/><path stroke="#000000" stroke-width="3.0" stroke-linejoin="round" stroke-linecap="butt" d="m472.07874 257.01837l124.03876 -32.56328" fill-rule="evenodd"/><path fill="#000000" stroke="#000000" stroke-width="3.0" stroke-linecap="butt" d="m597.37573 229.24788l11.909851 -8.249741l-14.426331 -1.335846z" fill-rule="evenodd"/></g></svg>