<?xml version="1.0" encoding="UTF-8" standalone="no"?>
<!-- Generator: Adobe Illustrator 25.1.0, SVG Export Plug-In . SVG Version: 6.00 Build 0)  -->
<svg
   xmlns:i="&amp;ns_ai;"
   xmlns:dc="http://purl.org/dc/elements/1.1/"
   xmlns:cc="http://creativecommons.org/ns#"
   xmlns:rdf="http://www.w3.org/1999/02/22-rdf-syntax-ns#"
   xmlns:svg="http://www.w3.org/2000/svg"
   xmlns="http://www.w3.org/2000/svg"
   xmlns:sodipodi="http://sodipodi.sourceforge.net/DTD/sodipodi-0.dtd"
   xmlns:inkscape="http://www.inkscape.org/namespaces/inkscape"
   version="1.1"
   x="0px"
   y="0px"
   viewBox="0 0 1296 1728"
   style="enable-background:new 0 0 1296 1728;"
   xml:space="preserve"
   id="svg10477"
   sodipodi:docname="SUmmerPartyPADS-PosterUS-18x24in.svg"
   inkscape:version="0.92.4 (5da689c313, 2019-01-14)"><metadata
   id="metadata10483"><rdf:RDF><cc:Work
       rdf:about=""><dc:format>image/svg+xml</dc:format><dc:type
         rdf:resource="http://purl.org/dc/dcmitype/StillImage" /></cc:Work></rdf:RDF></metadata><defs
   id="defs10481">
		</defs>
<style
   type="text/css"
   id="style2">
	.st0{fill:#FFFFFF;}
	.st1{fill-rule:evenodd;clip-rule:evenodd;fill:#F04A50;}
	.st2{fill-rule:evenodd;clip-rule:evenodd;fill:#FFE75E;}
	.st3{fill-rule:evenodd;clip-rule:evenodd;fill:#F6F6F7;}
	.st4{fill-rule:evenodd;clip-rule:evenodd;fill:none;}
	.st5{fill:#3C3C40;}
	.st6{font-family:'BungeeInline-Regular';}
	.st7{font-size:185.507px;}
	.st8{enable-background:new    ;}
	.st9{opacity:0.5;fill-rule:evenodd;clip-rule:evenodd;fill:#F9A866;}
	.st10{opacity:0.7;fill-rule:evenodd;clip-rule:evenodd;fill:#F04A50;}
	.st11{opacity:0.5;fill-rule:evenodd;clip-rule:evenodd;fill:#46B9D7;}
	.st12{opacity:0.5;fill-rule:evenodd;clip-rule:evenodd;fill:#FFE75E;}
	.st13{fill-rule:evenodd;clip-rule:evenodd;fill:#FFDB40;}
	.st14{fill:#F04A50;}
	.st15{font-family:'ProximaNova-Regular';}
	.st16{font-size:20px;}
	.st17{fill:#F6F6F7;}
	.st18{font-family:'ProximaNova-Bold';}
	.st19{font-size:49.2569px;}
	.st20{font-family:'MyriadPro-Regular';}
	.st21{font-size:12px;}
	.st22{fill:#ED3432;}
	.st23{fill:#28A8E0;}
	.st24{fill:#FCEE1F;}
</style>

	<g
   id="background">
			<rect
   id="background_1_"
   x="-9"
   y="-9"
   class="st0"
   width="1314"
   height="1746"
   style="fill:#ffffff" />
		</g><g
   id="shape-3">
			<polygon
   id="shape-3_1_"
   class="st1"
   points="-9,1682 790.5,1016.7 1.8,-9 -9,-9 "
   style="clip-rule:evenodd;fill:#f04a50;fill-rule:evenodd" />
		</g><g
   id="shape-2">
			<polygon
   id="shape-2_2_"
   class="st2"
   points="1305,419.7 -9,1620.6 -9,1737 1305,1737 "
   style="clip-rule:evenodd;fill:#ffe75e;fill-rule:evenodd" />
		</g><g
   id="rhombs-1_1_"
   class="st8"
   style="enable-background:new">
			<path
   id="rhombs-1"
   class="st9"
   d="m 572.1,994.8 -30.7,-30.7 -30.7,30.7 30.7,30.7 z m -122.6,0 30.7,30.7 30.7,-30.7 -30.7,-30.7 z m -61.3,0 30.7,30.7 30.7,-30.7 -30.7,-30.7 z m -61.3,0 30.7,30.7 30.7,-30.7 -30.7,-30.7 z m 214.6,30.7 -30.7,30.7 29.7,29.7 -29.7,29.7 30.7,30.7 30.7,-30.7 -29.7,-29.7 29.7,-29.7 z m -61.3,0 -30.7,30.7 29.7,29.7 -29.7,29.7 30.7,30.7 30.7,-30.7 -29.7,-29.7 29.7,-29.7 z m -61.4,0 -30.7,30.7 29.7,29.7 -29.7,29.7 30.7,30.7 30.7,-30.7 -29.7,-29.7 29.7,-29.7 z m -61.3,0 -30.7,30.7 29.7,29.7 -29.7,29.7 30.7,30.7 30.7,-30.7 -29.7,-29.7 29.7,-29.7 z"
   inkscape:connector-curvature="0"
   style="clip-rule:evenodd;opacity:0.5;fill:#f9a866;fill-rule:evenodd" />
		</g><g
   id="triangles-1_1_"
   class="st8"
   style="enable-background:new">
			<path
   id="triangles-1"
   class="st10"
   d="m 1108.2,943.3 h -57 l 28.5,49.3 z m -85.5,49.4 28.5,-49.3 h -57 z m -57,0 28.5,-49.3 h -57 z m -113.7,0 28.4,-49.2 28.4,49.2 28.5,-49.3 H 823.5 Z m 227.7,62.4 28.5,-49.3 h -57 z m -57,0 28.5,-49.3 h -57 z m -57,0 28.5,-49.3 h -57 z m -113.7,0 28.4,-49.2 28.4,49.2 28.5,-49.3 H 823.5 Z"
   inkscape:connector-curvature="0"
   style="clip-rule:evenodd;opacity:0.7;fill:#f04a50;fill-rule:evenodd" />
		</g><g
   id="circles-1"
   class="st8"
   style="enable-background:new">
			<path
   id="circles-1_1_"
   class="st11"
   d="m 716.6,469.7 c -16.3,0 -29.6,13.2 -29.6,29.6 0,16.3 13.2,29.6 29.6,29.6 16.3,0 29.6,-13.2 29.6,-29.6 -0.1,-16.4 -13.3,-29.6 -29.6,-29.6 z m 86.4,0 c -16.3,0 -29.6,13.2 -29.6,29.6 0,16.3 13.2,29.6 29.6,29.6 16.3,0 29.6,-13.2 29.6,-29.6 0,-16.4 -13.2,-29.6 -29.6,-29.6 z m 92.9,4.7 c -16.3,0 -29.6,13.2 -29.6,29.6 0,16.3 13.2,29.6 29.6,29.6 16.3,0 29.6,-13.2 29.6,-29.6 -0.1,-16.4 -13.3,-29.6 -29.6,-29.6 z m 82.5,59.1 c 16.3,0 29.6,-13.2 29.6,-29.6 0,-16.3 -13.2,-29.6 -29.6,-29.6 -16.3,0 -29.6,13.2 -29.6,29.6 0,16.3 13.3,29.6 29.6,29.6 z m -261.8,11.8 c -16.3,0 -29.6,13.2 -29.6,29.6 0,16.3 13.2,29.6 29.6,29.6 16.3,0 29.6,-13.2 29.6,-29.6 -0.1,-16.4 -13.3,-29.6 -29.6,-29.6 z m 86.4,0 c -16.3,0 -29.6,13.2 -29.6,29.6 0,16.3 13.2,29.6 29.6,29.6 16.3,0 29.6,-13.2 29.6,-29.6 0,-16.4 -13.2,-29.6 -29.6,-29.6 z m 92.9,4.7 c -16.3,0 -29.6,13.2 -29.6,29.6 0,16.3 13.2,29.6 29.6,29.6 16.3,0 29.6,-13.2 29.6,-29.6 C 925.4,563.2 912.2,550 895.9,550 Z m 82.5,0 c -16.3,0 -29.6,13.2 -29.6,29.6 0,16.3 13.2,29.6 29.6,29.6 16.3,0 29.6,-13.2 29.6,-29.6 -0.1,-16.4 -13.3,-29.6 -29.6,-29.6 z m -261.8,72.1 c -16.3,0 -29.6,13.2 -29.6,29.6 0,16.3 13.2,29.6 29.6,29.6 16.3,0 29.6,-13.2 29.6,-29.6 -0.1,-16.3 -13.3,-29.6 -29.6,-29.6 z m 86.4,0 c -16.3,0 -29.6,13.2 -29.6,29.6 0,16.3 13.2,29.6 29.6,29.6 16.3,0 29.6,-13.2 29.6,-29.6 0,-16.3 -13.2,-29.6 -29.6,-29.6 z m 92.9,4.7 c -16.3,0 -29.6,13.2 -29.6,29.6 0,16.3 13.2,29.6 29.6,29.6 16.3,0 29.6,-13.2 29.6,-29.6 -0.1,-16.3 -13.3,-29.6 -29.6,-29.6 z m 82.5,0 c -16.3,0 -29.6,13.2 -29.6,29.6 0,16.3 13.2,29.6 29.6,29.6 16.3,0 29.6,-13.2 29.6,-29.6 -0.1,-16.3 -13.3,-29.6 -29.6,-29.6 z"
   inkscape:connector-curvature="0"
   style="clip-rule:evenodd;opacity:0.5;fill:#46b9d7;fill-rule:evenodd" />
		</g><g
   id="rectangles-1"
   class="st8"
   style="enable-background:new">
			<path
   id="rectangles-1_1_"
   class="st12"
   d="M 498.4,718.4 H 106.5 v 33.5 h 391.8 v -33.5 z m 0,100.5 V 785.4 H 149.9 v 33.5 z m -56.2,28.4 H 71.1 v 33.5 h 371.2 v -33.5 z m -308.1,62.5 v 33.5 H 572 v -33.5 z"
   inkscape:connector-curvature="0"
   style="clip-rule:evenodd;opacity:0.5;fill:#ffe75e;fill-rule:evenodd" />
		</g><circle
   style="clip-rule:evenodd;fill:#ffdb40;fill-rule:evenodd;fill-opacity:0.57788944"
   r="444.29999"
   cy="864"
   cx="648.09998"
   class="st13"
   id="circle-1_1_" /><g
   id="text-5">
			<rect
   x="908.40002"
   y="1576"
   class="st4"
   width="213"
   height="18.1"
   id="rect10430"
   style="clip-rule:evenodd;fill:none;fill-rule:evenodd" />
			<text
   id="text-5_1_"
   transform="translate(967.1133,1592.6807)"
   class="st14 st15 st16"
   style="font-size:20px;font-family:ProximaNova-Regular;fill:#f04a50">Saturday, June 10</text>

		</g><g
   id="text-4">
			<rect
   x="172.5"
   y="1575.5"
   class="st4"
   width="295.10001"
   height="18.1"
   id="rect10434"
   style="clip-rule:evenodd;fill:none;fill-rule:evenodd" />
			<text
   id="text-4_1_"
   transform="translate(172.4971,1592.1885)"
   class="st14 st15 st16"
   style="font-size:20px;font-family:ProximaNova-Regular;fill:#f04a50">315 Millton Road, MN 1356</text>

		</g><g
   id="text-3">
			<rect
   x="174.3"
   y="1250.1"
   class="st4"
   width="490.39999"
   height="203.7"
   id="rect10438"
   style="clip-rule:evenodd;fill:none;fill-rule:evenodd" />
			<text
   id="text-3_1_"
   transform="translate(174.2593,1291.0986)"><tspan
     x="0"
     y="0"
     class="st17 st18 st19"
     id="tspan10440"
     style="font-size:49.25690079px;font-family:ProximaNova-Bold;fill:#f6f6f7">—</tspan><tspan
     x="0"
     y="69.800003"
     class="st17 st18 st19"
     id="tspan10442"
     style="font-size:49.25690079px;font-family:ProximaNova-Bold;fill:#f6f6f7">Work hard.</tspan><tspan
     x="0"
     y="139.60001"
     class="st17 st18 st19"
     id="tspan10444"
     style="font-size:49.25690079px;font-family:ProximaNova-Bold;fill:#f6f6f7">Party harder!</tspan></text>

		</g><g
   id="text-2">
			<rect
   x="174.39999"
   y="167.3"
   class="st4"
   width="265.10001"
   height="203.7"
   id="rect10448"
   style="clip-rule:evenodd;fill:none;fill-rule:evenodd" />
			<text
   id="text-2_1_"
   transform="translate(174.3877,208.3403)"><tspan
     x="0"
     y="0"
     class="st14 st18 st19"
     id="tspan10450"
     style="font-size:49.25690079px;font-family:ProximaNova-Bold;fill:#f04a50">—</tspan><tspan
     x="0"
     y="69.800003"
     class="st17 st18 st19"
     id="tspan10452"
     style="font-size:49.25690079px;font-family:ProximaNova-Bold;fill:#f6f6f7">S</tspan><tspan
     x="29.6"
     y="69.800003"
     class="st14 st18 st19"
     id="tspan10454"
     style="font-size:49.25690079px;font-family:ProximaNova-Bold;fill:#f04a50">tart</tspan><tspan
     x="0"
     y="139.60001"
     class="st17 st18 st19"
     id="tspan10456"
     style="font-size:49.25690079px;font-family:ProximaNova-Bold;fill:#f6f6f7">at 4 </tspan><tspan
     x="98"
     y="139.60001"
     class="st14 st18 st19"
     id="tspan10458"
     style="font-size:49.25690079px;font-family:ProximaNova-Bold;fill:#f04a50">pm</tspan></text>

		</g><g
   id="text-1">
			<rect
   x="173.89999"
   y="122.3"
   class="st4"
   width="359.39999"
   height="18.1"
   id="rect10462"
   style="clip-rule:evenodd;fill:none;fill-rule:evenodd" />
			<text
   id="text-1_1_"
   transform="translate(173.8726,139.0024)"
   class="st14 st15 st16"
   style="font-size:20px;font-family:ProximaNova-Regular;fill:#f04a50">Order table by phone: 287 26756 44</text>

			
		</g>
<g
   id="text-6">
			<rect
   x="175"
   y="575.70001"
   class="st4"
   width="1084"
   height="583.90002"
   id="rect10410"
   style="clip-rule:evenodd;fill:none;fill-rule:evenodd" />
			<text
   id="text-6_1_"
   transform="translate(174.9536,735.208)"><tspan
     x="0"
     y="0"
     class="st5 st6 st7"
     id="tspan10412"
     style="font-size:185.50700378px;font-family:BungeeInline-Regular;fill:#3c3c40">Grand</tspan><tspan
     x="0"
     y="185.5"
     class="st5 st6 st7"
     id="tspan10414"
     style="font-size:185.50700378px;font-family:BungeeInline-Regular;fill:#3c3c40">Summer</tspan><tspan
     x="0"
     y="371"
     class="st5 st6 st7"
     id="tspan10416"
     style="font-size:185.50700378px;font-family:BungeeInline-Regular;fill:#3c3c40">party</tspan></text>

		</g></svg>